<?xml version="1.0" encoding="utf-8"?>
<!-- Generator: Adobe Illustrator 13.0.0, SVG Export Plug-In . SVG Version: 6.00 Build 14948)  -->
<!DOCTYPE svg PUBLIC "-//W3C//DTD SVG 1.1//EN" "http://www.w3.org/Graphics/SVG/1.1/DTD/svg11.dtd">
<svg version="1.1" id="Layer_1" xmlns="http://www.w3.org/2000/svg" xmlns:xlink="http://www.w3.org/1999/xlink" x="0px" y="0px" viewBox="0 0 250 250" enable-background="new 0 0 250 250" xml:space="preserve">
<g>
	<path d="M125.276,56.869l24.552,48.18h-0.727c-0.527,0-0.989-0.419-1.385-1.254L126.2,61.356c-0.265-0.528-0.518-1.046-0.759-1.551
		c-0.242-0.506-0.429-1.023-0.561-1.551c-0.177,0.528-0.375,1.045-0.594,1.551c-0.221,0.505-0.462,1.023-0.726,1.551l-21.516,42.438
		c-0.44,0.835-0.902,1.254-1.386,1.254h-0.726l24.552-48.18H125.276z"/>
</g>
<g>
	<path d="M122.243,197.479l-27.258-52.272h11.616c0.88,0,1.683,0.221,2.409,0.66c0.726,0.44,1.353,1.166,1.881,2.178l12.276,23.958
		c0.528,1.013,0.979,2.079,1.353,3.201c0.374,1.122,0.715,2.321,1.022,3.598c0.309-1.276,0.65-2.476,1.023-3.598
		c0.375-1.122,0.825-2.188,1.353-3.201l12.343-23.958c0.527-1.012,1.154-1.737,1.881-2.178c0.726-0.439,1.529-0.66,2.409-0.66
		h11.615l-27.323,52.272H122.243z"/>
</g>
</svg>
