<svg xmlns="http://www.w3.org/2000/svg" viewBox="0 0 250 250"><path d="M125.276 56.869l24.552 48.18h-.727c-.527 0-.989-.419-1.385-1.254L126.2 61.356a86.808 86.808 0 0 1-.759-1.551 8.195 8.195 0 0 1-.561-1.551 19.535 19.535 0 0 1-.594 1.551 33.48 33.48 0 0 1-.726 1.551l-21.516 42.438c-.44.835-.902 1.254-1.386 1.254h-.726l24.552-48.18h.792zM122.243 197.479l-27.258-52.272h11.616c.88 0 1.683.221 2.409.66.726.44 1.353 1.166 1.881 2.178l12.276 23.958a21.878 21.878 0 0 1 1.353 3.201 43.654 43.654 0 0 1 1.022 3.598c.309-1.276.65-2.476 1.023-3.598a21.987 21.987 0 0 1 1.353-3.201l12.343-23.958c.527-1.012 1.154-1.737 1.881-2.178a4.568 4.568 0 0 1 2.409-.66h11.615l-27.323 52.272h-6.6z"/></svg>